<svg xmlns="http://www.w3.org/2000/svg" viewBox="0 0 24 24"><g clip-path="url(#a)"><path fill-rule="evenodd" d="M1.935 6.274A11.678 11.678 0 0 1 11.7 1h.604c3.936 0 7.607 1.983 9.765 5.274a8.759 8.759 0 0 1 0 9.606 11.678 11.678 0 0 1-9.765 5.274H11.7c-.257 0-.512-.008-.767-.025l-3.635 2.772a.5.5 0 0 1-.803-.398V19.93a11.673 11.673 0 0 1-4.56-4.05 8.759 8.759 0 0 1 0-9.606Zm6.764 4.803c0 .928-.74 1.68-1.653 1.68s-1.653-.752-1.653-1.68c0-.928.74-1.68 1.653-1.68s1.653.752 1.653 1.68Zm3.303 1.68c.913 0 1.653-.752 1.653-1.68 0-.928-.74-1.68-1.653-1.68-.912 0-1.652.752-1.652 1.68 0 .928.74 1.68 1.652 1.68Zm6.61-1.68c0 .928-.74 1.68-1.653 1.68s-1.653-.752-1.653-1.68c0-.928.74-1.68 1.653-1.68s1.653.752 1.653 1.68Z" clip-rule="evenodd"/></g><defs><clipPath id="a"><path d="M0 0h24v24H0z"/></clipPath></defs></svg>